<svg xmlns="http://www.w3.org/2000/svg" width="1073" height="502" viewBox="0 0 1073 502" version="1.1"><path d="M 1072.165 76.246 C 1071.976 164.189, 1072.871 155.409, 1061.898 177 C 1047.591 205.151, 1025.085 226.533, 993.500 241.982 C 967.531 254.684, 940.462 261.347, 902 264.503 C 876.833 266.569, 868.615 268.613, 852.658 276.775 C 830.565 288.076, 816.587 302.497, 802.915 328.097 C 792.708 347.209, 785.191 357.678, 771.500 371.849 C 744.908 399.372, 711.480 418.472, 671.500 428.987 C 648.832 434.949, 631.748 437.100, 607 437.109 C 582.891 437.117, 566.486 435.067, 545.157 429.378 L 535.814 426.887 524.157 429.897 C 462.615 445.789, 393.451 435.984, 340.201 403.820 C 325.951 395.212, 313.207 384.963, 300.470 371.868 C 287.148 358.170, 278.978 346.704, 268.504 327 C 256.209 303.870, 242.979 289.766, 223 278.488 C 207.648 269.823, 195.369 266.580, 170 264.492 C 129.759 261.179, 104.793 254.903, 76.500 240.984 C 40.842 223.442, 14.777 194.671, 2.019 158.770 C 0.175 153.581, 0.145 156.185, 0.073 327.751 L 0 502.002 536.750 501.751 L 1073.500 501.500 1073.730 358.500 C 1073.856 279.850, 1073.593 166.900, 1073.145 107.500 L 1072.330 -0.500 1072.165 76.246 M 0.489 328 C 0.489 423.975, 0.606 463.238, 0.750 415.250 C 0.894 367.263, 0.894 288.738, 0.750 240.750 C 0.606 192.763, 0.489 232.025, 0.489 328" stroke="none" fill="#fcfbfb" fill-rule="evenodd"/><path d="M 0 76.343 C 0 162.669, -0.730 154.283, 8.480 173.725 C 22.147 202.576, 45.631 225.797, 76.500 240.984 C 104.793 254.903, 129.759 261.179, 170 264.492 C 195.369 266.580, 207.648 269.823, 223 278.488 C 242.979 289.766, 256.209 303.870, 268.504 327 C 278.978 346.704, 287.148 358.170, 300.470 371.868 C 313.207 384.963, 325.951 395.212, 340.201 403.820 C 393.451 435.984, 462.615 445.789, 524.157 429.897 L 535.814 426.887 545.157 429.378 C 566.486 435.067, 582.891 437.117, 607 437.109 C 631.748 437.100, 648.832 434.949, 671.500 428.987 C 711.480 418.472, 744.908 399.372, 771.500 371.849 C 785.191 357.678, 792.708 347.209, 802.915 328.097 C 816.587 302.497, 830.565 288.076, 852.658 276.775 C 868.615 268.613, 876.833 266.569, 902 264.503 C 940.462 261.347, 967.531 254.684, 993.500 241.982 C 1009.682 234.067, 1021.922 225.753, 1033.442 214.850 C 1045.692 203.256, 1054.524 191.509, 1061.898 177 C 1072.886 155.379, 1072 164.195, 1072 76.496 L 1072 0 536 0 L 0 0 0 76.343" stroke="none" fill="#fc7957" fill-rule="evenodd"/></svg>