<?xml version="1.0" encoding="utf-8"?>
<!DOCTYPE svg PUBLIC "-//W3C//DTD SVG 1.0//EN" "http://www.w3.org/TR/2001/REC-SVG-20010904/DTD/svg10.dtd">
<svg version="1.0" xmlns="http://www.w3.org/2000/svg" width="500px" height="500px" viewBox="0 0 500 500" preserveAspectRatio="xMidYMid meet">
 <g fill="#f3f7f5">
  <path d="M195.6 439.9 c-0.5 -1.7 -2.7 -34.2 -2.3 -34.5 0.6 -0.7 20.8 -1.6 22.9 -1.1 6.5 1.7 9.1 9.6 4.7 14.4 l-2.2 2.2 2.6 1 c2.9 1.1 5.7 4.7 5.7 7.3 0 0.9 -1.3 3.3 -3 5.1 -3.5 4 -7.7 5.3 -19.7 6.3 -6.5 0.5 -8.4 0.3 -8.7 -0.7z m20.4 -7.3 c2.8 -1.3 3.8 -4.9 2 -7.2 -1.3 -1.5 -7.4 -1.9 -12.9 -0.8 -2.7 0.6 -3.1 1.1 -3.1 3.9 0 6 0.6 6.6 6.4 5.9 2.8 -0.3 6.2 -1.1 7.6 -1.8z m-6.1 -13.7 c5.3 -1.1 6.8 -3 5.6 -6.9 -0.6 -1.7 -1.5 -2 -7.6 -2 l-6.9 0 0 4.3 c0 6.3 0.4 6.5 8.9 4.6z"/>
  <path d="M260.1 423.5 c-5.4 -5.2 -10.1 -9.5 -10.4 -9.5 -0.4 0 -0.4 2 0 4.5 0.5 4.1 0.4 4.5 -1.6 4.5 -1.1 0 -2.1 -0.4 -2.1 -1 0 -0.5 -0.9 -1 -1.9 -1 -1.7 0 -2 -1.1 -2.8 -9.2 -1 -10.9 -0.9 -11.8 2.3 -11.8 1.6 0 5.3 2.8 11.5 8.8 10.3 9.9 11.9 11 11.9 8.7 0 -3.8 1.9 0 2.5 5 0.6 4.8 1 5.5 2.9 5.5 2.5 0 4.6 1.7 4.6 3.7 0 0.8 -1.3 1.3 -3.6 1.3 -3.1 0 -4.7 -1.1 -13.3 -9.5z"/>
  <path d="M293.6 428.8 c-0.2 -1.3 -1 -7.5 -1.6 -13.8 -0.6 -6.3 -1.4 -13.1 -1.7 -15.1 l-0.5 -3.6 11.1 -0.7 c9 -0.5 11.7 -0.3 14.1 0.9 5.2 2.7 6.5 7.5 3 11.5 -2.6 3 -2.5 3.3 0.8 4.8 6.1 2.7 5.8 11.3 -0.5 14.5 -3.3 1.7 -14.2 3.7 -20.1 3.7 -3.5 0 -4.2 -0.3 -4.6 -2.2z m19.4 -6.3 c3.3 -1.7 3.9 -4.7 1.6 -7.1 -1.6 -1.6 -9.2 -1.9 -12.8 -0.5 -2.1 0.8 -2.3 1.4 -2 5 l0.4 4.1 5 0 c2.7 0 6.2 -0.7 7.8 -1.5z m-5.9 -13 c4.5 -0.7 6.3 -2.7 5.5 -6 -0.6 -2.4 -1 -2.5 -8.1 -2.5 -7.3 0 -7.5 0.1 -7.5 2.4 0 1.4 0.4 3.6 1 5.1 0.7 1.9 1.5 2.4 3.2 2.1 1.3 -0.3 3.9 -0.7 5.9 -1.1z"/>
  <path d="M266.5 404.9 c-0.6 -4.7 -0.4 -6.3 0.6 -7 2.9 -1.8 4.8 -0.9 5.8 2.9 1.5 5.3 1.4 8.2 -0.4 8.2 -0.8 0 -1.5 0.5 -1.5 1 0 0.6 -0.9 1 -1.9 1 -1.6 0 -2 -1 -2.6 -6.1z"/>
  <path d="M69.9 398.8 c-0.4 -1.1 -2.6 -61.4 -2.3 -61.7 0.2 -0.2 9.8 -0.6 21.2 -0.9 l20.9 -0.5 3.5 3.6 c6 6 6 14.6 0 21.1 -1.7 1.8 -2.3 3 -1.5 3.3 2.9 1.1 7.9 5.1 9 7.3 0.7 1.4 1.3 4.2 1.3 6.3 0 3 -0.4 3.7 -1.9 3.7 -1 0 -2.2 -0.8 -2.6 -1.7 -0.6 -1.6 -0.9 -1.5 -1.9 0.8 -2.6 5.8 -5 7.6 -13.2 9.8 l-7.9 2.1 9.3 -0.6 c7.6 -0.4 9.2 -0.3 9.2 0.9 0 2.4 -7.9 4.5 -21.3 5.6 -12 1 -21.6 1.4 -21.8 0.9z m10.4 -8.8 c-0.4 -2.6 -0.2 -4 0.6 -4 0.6 0 1.1 0.4 1.1 1 0 1 10.5 0.4 18.7 -1.1 8.1 -1.6 11.5 -7.3 7.6 -12.8 -1.6 -2.3 -1.9 -2.4 -12 -1.7 -12.7 0.8 -15.3 1.7 -15.3 5.1 0 1.5 -0.7 2.8 -1.7 3.2 -5.2 1.9 -7 9.1 -3.1 12.4 3.5 3.1 4.7 2.4 4.1 -2.1z m18.9 -29.1 c4.4 -1.1 6.8 -4.1 6.8 -8.6 0 -3.6 -2.2 -6.3 -5.3 -6.4 -5.1 -0.2 -14.4 0.2 -17.4 0.8 l-3.3 0.5 0 8 0 8.1 7.8 -0.7 c4.2 -0.4 9.4 -1.1 11.4 -1.7z"/>
  <path d="M134.3 383.7 c-2.3 -2.5 -4.8 -6.6 -5.8 -9.6 -1.5 -4.5 -1.5 -5.8 -0.4 -9.6 4.2 -14.1 19 -21.9 35.3 -18.5 4.9 1 6.7 2 11.1 6.3 3.8 3.8 5.7 6.4 6.5 9.7 2.1 7.9 -0.6 16.4 -7.4 22.9 l-3.6 3.5 0 -3.3 c0 -1.8 0.5 -4.2 1.1 -5.4 1 -2.1 0.9 -2.1 -1 0.1 -1.1 1.3 -3.6 2.6 -5.6 2.9 -1.9 0.3 -3.5 1 -3.5 1.4 0 0.5 -1.6 0.9 -3.5 0.9 -4.7 0 -4.8 -2.7 0 -3.6 1.9 -0.3 5.1 -2.1 7.2 -3.9 3.6 -3.1 3.8 -3.5 3.8 -9.3 0 -5.3 -0.4 -6.5 -2.8 -9 -4.3 -4.4 -9.7 -5.7 -15.7 -3.7 -8.8 2.9 -12.6 11.1 -8.6 18.7 1.3 2.5 1.3 2.7 -0.7 3 -2 0.3 -2.2 0.8 -1.9 5.6 0.2 2.8 0.2 5.2 -0.1 5.2 -0.2 0 -2.2 -1.9 -4.4 -4.3z"/>
  <path d="M227 380.4 c0 -2.7 0.5 -3.7 1.9 -4.1 3.4 -0.9 3.5 -7.3 0.1 -7.3 -1.6 0 -1.7 -0.4 -0.9 -3.2 2.9 -10.4 -7.3 -19.1 -18.7 -15.9 -6.9 2 -10.4 6.3 -10.4 12.7 0 4.4 3.1 9.4 7.2 11.9 3.7 2.1 3.6 3.5 -0.3 3.5 -3.2 0 -6.9 -1.5 -8.1 -3.4 -0.4 -0.6 -1 0.3 -1.4 2.2 -0.7 3.6 -1.4 3.9 -3.6 1.5 -8.8 -10 -7.2 -24.2 3.6 -32.4 6 -4.5 10.9 -6 19.5 -6 10.9 0 18.6 4.4 22.7 12.8 2.3 4.7 2.6 6.2 2.1 11.4 -0.4 3.3 -1.4 7.3 -2.2 9 -1.7 3.2 -9.2 10.9 -10.6 10.9 -0.5 0 -0.9 -1.6 -0.9 -3.6z"/>
  <path d="M251.6 383.1 c-0.5 -0.8 -1.3 -8.5 -3.6 -35.1 -0.5 -5.8 -1.4 -12.9 -2 -15.9 -0.5 -2.9 -1 -7 -1 -9.1 l0 -3.7 5.6 -0.7 c3.1 -0.4 5.8 -0.5 6 -0.4 0.6 0.7 5.5 57 5 57.5 -0.3 0.4 -2.2 0.2 -4.1 -0.4 -3.1 -1 -3.5 -0.9 -3.5 0.7 0 1.1 0.5 2.2 1 2.5 0.6 0.3 1 1.7 1 3.1 0 1.7 -0.5 2.4 -1.9 2.4 -1.1 0 -2.2 -0.4 -2.5 -0.9z"/>
  <path d="M288.1 378.4 c-18.4 -4.9 -25.9 -24.7 -14.3 -37.6 5.1 -5.7 12.5 -8.8 20.8 -8.8 11.1 0 18.8 5 22.4 14.6 2.7 7.3 2.6 9 -0.5 9.8 -4.6 1.2 -24.8 3.6 -29.7 3.6 -3.7 0 -4.8 0.4 -4.8 1.5 0 1.7 3.4 5.5 6.5 7.3 2 1.1 2 1.1 0.1 2.5 -1.9 1.4 -1.9 1.5 0.2 2.6 1.1 0.6 2.8 1.1 3.6 1.1 1 0 1.6 0.9 1.6 2.5 0 1.4 -0.1 2.5 -0.2 2.4 -0.2 0 -2.7 -0.7 -5.7 -1.5z m9.7 -27.1 c7.7 -0.5 8.2 -0.7 8.2 -2.9 0 -1.3 -1.3 -3.3 -3.1 -4.8 -2.5 -2.1 -4.1 -2.6 -8.5 -2.6 -6.9 0 -11.1 2.1 -13 6.6 -2 4.7 -1.1 5.8 4 5 2.2 -0.4 7.8 -0.9 12.4 -1.3z"/>
  <path d="M215.2 377.8 c0.3 -0.7 1.9 -1.8 3.6 -2.5 3.1 -1.3 3.2 -1.2 3.2 1.2 0 2.2 -0.4 2.5 -3.6 2.5 -2.3 0 -3.4 -0.4 -3.2 -1.2z"/>
  <path d="M331.8 372.1 c-4.7 -3 -6.8 -5.6 -6.8 -8.6 0 -2.6 4.4 -1.5 4.8 1.1 0.2 1.3 1.3 2.5 2.5 2.8 3.4 0.9 12.7 0.7 12.7 -0.3 0 -0.4 2 -1.4 4.5 -2.1 5.6 -1.6 9.5 -5.3 9.5 -9.2 0 -4.5 -0.9 -4.6 -17.8 -1.2 -1.2 0.3 -2.8 1.6 -3.4 2.9 -1.4 3.2 -3.1 3.2 -4.8 -0.1 -1.4 -2.4 -1.4 -2.5 -2.2 -0.5 -0.8 2.3 -5.8 3 -5.8 0.8 0 -1.4 6.2 -7.5 9.6 -9.4 1.2 -0.6 6.7 -1.7 12.3 -2.4 9.4 -1.2 10.1 -1.4 10.1 -3.5 0 -3.6 -4.5 -6.4 -10.4 -6.4 -6.3 0 -12 1.5 -14.2 3.8 -1.6 1.5 -1.9 1.4 -4.5 -1.7 l-2.8 -3.4 2.5 -2 c4.6 -3.6 12 -5.7 19.9 -5.7 8.3 0 13.1 1.5 17 5.4 3.3 3.3 3.2 4.9 -0.2 4.4 l-2.8 -0.4 -0.1 8.3 c0 4.6 0.3 8.3 0.8 8.3 0.4 0 0.8 0.8 0.8 1.8 0 2 2.3 8.9 3.3 9.8 0.4 0.4 0.7 2.2 0.7 4.1 0 2.8 -0.3 3.3 -2.5 3.3 -1.8 0 -2.6 -0.7 -3.1 -2.5 -0.8 -3.1 -2.5 -3.2 -5 -0.4 -5.9 6.5 -16.9 7.8 -24.6 3z"/>
  <path d="M311.4 371.6 c-0.4 -1 -1.8 -1.6 -4 -1.6 -4.1 0 -4.3 -0.7 -0.7 -3.6 l2.8 -2.2 3.7 2.2 c4.1 2.3 4.3 3.2 1 5.4 -1.9 1.3 -2.2 1.2 -2.8 -0.2z"/>
  <path d="M379.6 348.4 c-0.3 -0.9 -0.6 -2.9 -0.6 -4.5 0 -2.2 0.5 -2.9 2 -2.9 1.7 0 2 0.7 2 4.5 0 3.2 -0.4 4.5 -1.4 4.5 -0.8 0 -1.7 -0.7 -2 -1.6z"/>
  <path d="M378.7 338.7 c-0.3 -0.8 -0.8 -4.4 -1.2 -8 l-0.7 -6.7 2.6 0 c2.6 0 2.6 0 2.6 8 0 6.2 -0.3 8 -1.4 8 -0.8 0 -1.6 -0.6 -1.9 -1.3z"/>
  <path d="M387.3 337.5 c-0.7 -0.8 -1.3 -2.8 -1.3 -4.5 l0 -3 6 0 c4.7 0 6 0.3 6 1.5 0 0.9 -1.1 2 -2.4 2.5 -1.4 0.5 -3 1.8 -3.6 3 -1.2 2.3 -3 2.5 -4.7 0.5z"/>
  <path d="M391.6 326.5 c1.3 -3.2 15.2 -6.7 19.8 -4.9 3.1 1.2 1.8 3.4 -2.1 3.4 -2.1 0 -5.6 0.7 -7.8 1.5 -5.5 1.9 -10.6 2 -9.9 0z"/>
  <path d="M383.2 325.3 c0.2 -1 1.3 -1.9 2.6 -2.1 1.7 -0.3 2.2 0.2 2.2 1.7 0 1.6 -0.6 2.1 -2.6 2.1 -1.9 0 -2.5 -0.5 -2.2 -1.7z"/>
  <path d="M429 292.1 c0.1 -2.5 0.1 -2.5 1.5 -0.7 1.9 2.5 1.9 3.3 0 3.3 -1 0 -1.5 -1 -1.5 -2.6z"/>
  <path d="M437 293.9 c0 -0.5 -0.5 -0.7 -1.1 -0.3 -0.7 0.4 -1 0.1 -0.7 -0.6 0.7 -2.3 2.8 -2.3 2.8 -0.1 0 1.2 -0.2 2.1 -0.5 2.1 -0.3 0 -0.5 -0.5 -0.5 -1.1z"/>
  <path d="M207.5 285.9 c-6.7 -1.9 -11.3 -9.6 -10 -16.5 0.3 -1.9 2.1 -5.2 4 -7.3 l3.4 -3.7 -1.4 -14.4 c-0.8 -8 -1.5 -14.8 -1.5 -15.2 0 -0.5 1.5 -0.8 3.3 -0.8 1.8 0 5.9 -0.5 9.1 -1.1 3.2 -0.6 6.1 -0.8 6.4 -0.4 0.4 0.3 0.9 7.4 1.3 15.6 0.6 15 0.7 15.1 3.7 18.2 5.4 5.7 6.5 10.6 4 16.4 -3.7 8.3 -12.8 12 -22.3 9.2z m11.7 -10.6 c1.8 -1.6 2.4 -5.8 1 -8 -1.6 -2.5 -6.1 -3.4 -9.7 -1.8 -3 1.2 -3.5 1.9 -3.5 4.6 0 1.8 0.7 4.1 1.7 5.1 2 2.3 8 2.4 10.5 0.1z"/>
  <path d="M286.3 277.9 c-3 -1.5 -4.8 -3.3 -6.3 -6.4 -2.7 -5.6 -1.9 -10.5 2.5 -15.4 l3.3 -3.6 -1.4 -14.9 c-0.7 -8.3 -1.3 -15.1 -1.1 -15.2 0.1 -0.1 4.1 -0.5 8.8 -0.9 10.2 -0.8 9.1 -2.5 11 16.5 1.2 12 1.4 12.7 4.6 16.3 3.3 3.7 3.6 5.7 0.7 5.7 -1 0 -1.4 1.2 -1.4 3.9 0 6 -0.8 7.1 -4.7 7.1 l-3.4 0 2 -2.6 c2.6 -3.3 2.6 -5.5 0.2 -8.5 -2.3 -2.9 -8.1 -3.1 -11.1 -0.4 -4.3 3.9 -0.9 11.5 5.2 11.5 2.1 0 2.8 0.5 2.8 1.9 0 1 -0.9 2.1 -2 2.4 -1.2 0.3 -2 1.4 -2 2.6 0 2.7 -2.3 2.7 -7.7 0z"/>
  <path d="M167.8 219.8 c-7.2 -4.1 -7.1 -10.6 0.1 -14.6 3.2 -1.8 6.6 -2.3 22.2 -3.2 10.1 -0.5 26.5 -1.7 36.4 -2.5 9.9 -0.8 26.8 -1.9 37.5 -2.5 10.7 -0.6 26.9 -1.7 36 -2.6 9.1 -0.9 20.2 -1.6 24.7 -1.7 7.3 -0.2 8.4 0 10.7 2.2 1.4 1.3 2.8 3.3 3.2 4.3 0.7 2.4 -1.3 7.5 -3.3 8.2 -1.3 0.5 -1.5 -0.1 -1.1 -3.9 l0.6 -4.5 -4 0 c-2.2 0 -4.6 0.7 -5.4 1.5 -0.9 0.8 -2.5 1.5 -3.6 1.5 -1.4 0 -1.8 0.5 -1.4 1.6 0.3 0.9 0.6 1.8 0.6 2 0 0.2 0.7 0.4 1.5 0.4 0.9 0 1.5 0.9 1.5 2.5 l0 2.5 -10.7 0 c-6 0.1 -16.6 0.5 -23.8 1 -7.1 0.5 -23.1 1.6 -35.5 2.5 -34.2 2.3 -57.8 4.4 -68.6 6 -12.4 1.9 -13.2 1.9 -17.6 -0.7z"/>
  <path d="M198.9 183.9 c0 -5.2 -0.6 -18.2 -1.3 -28.9 l-1.3 -19.5 8.1 -7.7 c4.5 -4.2 8.4 -7.7 8.7 -7.8 1 0 1.8 10.4 2.9 37 0.5 12.9 1.3 26.1 1.6 29.3 l0.6 5.7 -4.4 0 c-2.3 0 -6.7 0.3 -9.5 0.6 l-5.3 0.7 -0.1 -9.4z"/>
  <path d="M280.6 184.8 c-0.3 -1.8 -1.2 -13.4 -2.1 -25.8 -0.8 -12.4 -2 -26.6 -2.5 -31.7 -1.4 -13 -1.5 -12.7 1.8 -9.8 1.6 1.4 5.9 4.6 9.8 7.3 l6.9 4.7 0.7 12 c0.4 6.6 1.2 15.8 1.7 20.5 0.6 4.7 1.3 11.9 1.6 16.1 l0.6 7.7 -5.8 0.6 c-3.2 0.4 -7.2 1 -9 1.3 -3 0.5 -3.2 0.3 -3.7 -2.9z"/>
  <path d="M228 138.7 l0 -6.5 6.1 -0.7 c3.3 -0.4 6.2 -0.6 6.4 -0.4 0.1 0.2 0.4 3.3 0.6 6.9 l0.4 6.4 -6.7 0.4 -6.8 0.4 0 -6.5z"/>
  <path d="M250.5 138.5 c-0.4 -3.7 -0.5 -6.8 -0.3 -7 0.2 -0.2 3.4 -0.7 7.1 -1.1 l6.7 -0.7 0 2.9 c0 1.6 0.3 4.5 0.6 6.5 l0.6 3.7 -4.8 0.5 c-2.7 0.2 -5.9 0.8 -7 1.2 -2 0.6 -2.2 0.2 -2.9 -6z"/>
  <path d="M160.8 140.4 c-1.3 -1.2 -0.9 -6.8 0.6 -9 0.8 -1.1 10.6 -9.9 21.7 -19.5 11.1 -9.6 26.2 -22.6 33.4 -29 21 -18.4 22.2 -19.1 30.2 -17 3.3 0.9 20.5 12.5 30.3 20.4 2.7 2.2 20.1 14.1 34.5 23.7 17 11.3 18.5 12.6 18.5 16.1 0 3.5 -3.9 6.1 -10 6.7 -5 0.4 -7 -0.7 -30 -17.3 -37.4 -26.8 -43 -30.5 -46.5 -30.5 -2.5 0 -6 2.5 -19.5 14.1 -9.1 7.8 -18.9 16.3 -21.7 19 -4.6 4.2 -13.2 11.6 -23.5 19.9 -2.5 2 -4.4 2.5 -10.2 2.8 -3.9 0.2 -7.4 0 -7.8 -0.4z"/>
  <path d="M226 117.7 c0 -7.4 0.3 -7.7 8 -7.7 5.5 0 6 0.7 6 8.1 0 4.5 -0.2 4.9 -2.4 4.9 -1.3 0 -4.4 0.3 -7 0.6 l-4.6 0.7 0 -6.6z"/>
  <path d="M249.8 122.3 c-0.2 -0.4 -0.5 -3.6 -0.7 -7 l-0.3 -6.1 6.7 -0.4 c3.7 -0.1 6.9 -0.1 7.1 0.1 0.2 0.2 0.4 3 0.4 6.1 l0 5.7 -4.2 0.7 c-2.4 0.4 -5.3 0.9 -6.4 1.2 -1.2 0.3 -2.4 0.2 -2.6 -0.3z"/>
  <path d="M290.3 86.4 c-12.2 -8.5 -12.2 -8.8 0.3 -9.8 l8.2 -0.7 0.7 8.1 c0.4 4.5 0.6 8.3 0.4 8.5 -0.2 0.2 -4.6 -2.6 -9.6 -6.1z"/>
  <path d="M275.7 68.3 c-0.4 -0.3 -0.7 -2.3 -0.7 -4.4 0 -4.6 0.8 -5 12.9 -5.7 10.4 -0.5 11.1 -0.2 11.1 5.9 0 3.6 -0.1 3.6 -4.6 4.3 -6.1 0.8 -17.9 0.8 -18.7 -0.1z"/>
 </g>
 <g fill="#e3e4e1">
  <path d="M244.7 435.3 c-0.5 -0.8 -1.4 -7.4 -2.2 -15.3 -1.8 -17.6 -1.8 -17.4 0.9 -14.7 0.7 0.7 1.2 2.1 1 3.2 -0.4 2.4 2.3 6.8 3.6 6 0.6 -0.4 1.1 0 1.1 0.7 0.3 3.4 0.9 7.1 1.8 12.4 1.6 8.3 1.5 8.4 -2.3 8.4 -1.9 0 -3.7 -0.3 -3.9 -0.7z"/>
  <path d="M199.6 432.8 c0.3 -0.5 -0.5 -1.3 -1.8 -1.8 l-2.3 -1.1 2.3 0.5 c2.2 0.4 2.3 0.3 0.8 -1.9 -1.2 -1.8 -1.2 -2.5 -0.3 -2.8 0.6 -0.3 0.3 -0.6 -0.8 -0.7 -1.8 -0.1 -1.8 -0.2 0.5 -1.5 2.4 -1.4 2.4 -1.4 0.3 -1.5 -1.2 0 -2.5 -0.4 -2.8 -1 -0.3 -0.5 -0.1 -1 0.4 -1 0.6 0 1.1 -0.8 1.1 -1.7 0 -1.5 -0.2 -1.6 -1 -0.3 -0.8 1.2 -1 1 -1 -0.8 0 -1.6 0.4 -2.1 1.3 -1.6 0.9 0.6 0.9 0.5 0 -0.7 -0.7 -0.8 -1.1 -2.4 -1.1 -3.5 0.2 -1.6 0.8 -1.9 3 -1.6 2.6 0.4 2.8 0.8 2.9 5.1 0.1 2.5 0 5.6 -0.1 6.9 -0.1 1.8 0.4 2.2 2.7 2.3 2.5 0.2 2.5 0.2 0.5 0.6 -2.1 0.4 -2.4 0.9 -2 4.8 0.2 3.6 0 4.3 -1.4 4.2 -0.9 -0.1 -1.4 -0.5 -1.2 -0.9z"/>
  <path d="M272 431.7 c0 -0.5 -0.3 -0.6 -0.7 -0.4 -1.9 1.1 -4.8 -1.2 -5 -3.9 -0.2 -1.6 -0.5 -4.4 -0.7 -6.1 -0.2 -1.8 0 -3 0.5 -2.7 0.8 0.5 1.4 -6.3 1.1 -13.6 0 -1.7 0.1 -1.9 0.5 -0.7 0.4 1.8 0.6 1.7 2 -0.3 0.8 -1.2 1.2 -2.4 0.9 -2.7 -0.3 -0.4 -0.6 -0.1 -0.6 0.6 0 0.7 -0.5 0.9 -1.1 0.5 -0.8 -0.4 -0.7 -0.9 0.2 -1.4 1.7 -1.1 3.8 -0.1 3.8 1.8 0 0.9 0.6 5.1 1.5 9.2 0.8 4.1 1.6 10.4 1.9 14 0.4 6.3 0.4 6.5 -1.9 6.5 -1.3 0 -2.4 -0.4 -2.4 -0.8z"/>
  <path d="M296.1 430.6 c0.2 -0.2 3.8 -0.6 7.9 -0.9 5.6 -0.4 6.5 -0.3 3.5 0.3 -4 0.9 -12.2 1.3 -11.4 0.6z"/>
  <path d="M294 419.5 c-1.9 -2.3 -0.4 -4.5 3 -4.5 3.6 0 3.8 0.7 0.8 2.1 l-2.3 1 2.3 -0.5 c1.2 -0.2 2.2 0 2.2 0.5 0 0.5 -0.7 0.9 -1.5 0.9 -0.8 0 -1.5 0.5 -1.5 1 0 1.5 -1.6 1.2 -3 -0.5z"/>
  <path d="M294.3 411.9 c-0.4 -1.6 -0.8 -1.7 -1.4 -0.7 -0.7 1 -0.9 0.9 -0.9 -0.4 0 -0.9 0.6 -1.8 1.3 -2.1 0.9 -0.3 0.8 -0.9 -0.4 -2.3 -0.9 -1 -1.9 -3.4 -2.1 -5.2 -0.4 -3 -0.2 -3.3 3.1 -4.2 4.6 -1.3 6.1 -1.3 6.1 0 0 0.6 1.2 0.8 2.8 0.5 2.3 -0.5 2.4 -0.4 0.9 0.5 -0.9 0.6 -1.5 1.4 -1.3 1.8 0.3 0.4 -0.7 0.9 -2.2 1 -2.1 0.1 -2.4 0 -1.2 -0.8 1.3 -0.8 1.2 -1 -0.3 -1 -1.5 0 -1.7 0.8 -1.4 6.3 0.2 3.5 0.7 7 1.2 7.8 0.5 0.8 -0.2 0.5 -1.5 -0.6 -2 -1.7 -2.3 -1.8 -1.7 -0.2 0.4 0.9 0.4 1.7 0.1 1.7 -0.3 0 -0.8 -0.9 -1.1 -2.1z"/>
  <path d="M78.5 398 l4 -0.7 -3.6 -0.2 c-2 0 -4.6 -1 -5.9 -2.1 -2 -1.7 -2.3 -3 -2.4 -9.2 -0.1 -7.2 -0.1 -7.2 3.4 -9.5 1.9 -1.2 4 -2.7 4.7 -3.3 0.7 -0.5 2.5 -1 4 -0.9 2.6 0 2.6 0.1 0.7 0.9 -2 0.8 -2.1 1.4 -1.7 7.7 0.4 5 1.1 7.3 2.5 8.7 1.9 1.7 2.2 1.7 5.6 0.2 2 -0.9 4.8 -1.9 6.2 -2.2 1.4 -0.3 3.6 -0.7 4.9 -1 1.3 -0.3 3.2 -0.9 4.3 -1.5 1 -0.5 1.8 -0.7 1.8 -0.3 0 1.5 4.6 -5.2 6.2 -9 0.9 -2.3 1.7 -3.5 1.7 -2.7 0.1 0.8 0.4 1.1 0.8 0.8 0.3 -0.4 1.7 0 2.9 0.8 1.5 0.9 2.4 1.1 2.6 0.4 0.2 -0.6 0.4 0.8 0.5 3.2 0.1 2.4 -0.5 5.8 -1.4 7.7 -1.7 3.6 -8.9 9.6 -10.4 8.6 -0.5 -0.3 -1.7 0.2 -2.6 1.1 -1.2 1.2 -3 1.6 -6.5 1.3 -2.6 -0.1 -4.9 0 -5.1 0.3 -0.1 0.4 -4.9 0.9 -10.7 1.2 -6 0.3 -8.8 0.2 -6.5 -0.3z m11.3 -1.7 c-1 -0.2 -2.8 -0.2 -4 0 -1.3 0.2 -0.5 0.4 1.7 0.4 2.2 0.1 3.2 -0.1 2.3 -0.4z"/>
  <path d="M145 390.5 c-7.6 -2.8 -10.9 -6.3 -10.6 -11 0.1 -1.8 0.7 -3.9 1.4 -4.7 0.6 -0.8 0.9 -1.8 0.5 -2.1 -0.3 -0.4 0.1 -0.7 1.1 -0.7 0.9 0 1.4 -0.4 1.1 -1 -0.3 -0.5 -0.1 -1 0.4 -1 0.6 0 1.1 0.8 1.1 1.8 0 1.1 1.5 3.5 3.4 5.4 6.8 7 19.9 5.7 24.8 -2.4 1.2 -2.2 3.2 -4.8 4.3 -5.9 1.9 -1.9 1.9 -1.9 3.9 0 1.6 1.7 1.7 2.2 0.6 3.6 -0.7 0.9 -0.9 1.5 -0.4 1.3 1.6 -0.5 1.3 1.5 -0.8 5.7 l-2.1 4 2.4 -1.9 c1.3 -1.1 0 0.4 -2.9 3.2 -3.8 3.7 -6.9 5.6 -10.5 6.7 -6.8 2 -10 1.8 -17.7 -1z"/>
  <path d="M206.5 386.6 c-4.5 -1.6 -11.7 -6.1 -13.9 -8.5 -1.8 -2 -1.8 -2.2 -0.2 -4 1.6 -1.8 1.6 -2 0.1 -2.9 -0.9 -0.5 -1.7 -2 -1.7 -3.3 0.1 -4.8 0.7 -7.4 1.8 -7.4 1.5 0 6.1 5.6 6.6 8 0.4 2.4 2 4.5 3.1 3.8 0.4 -0.2 0.7 0.1 0.7 0.7 0 0.6 0.4 0.9 0.9 0.6 0.5 -0.4 1.1 -0.2 1.3 0.3 0.1 0.6 2.4 1.5 4.9 2.2 4.2 1.1 5 1 9.4 -1.1 3.2 -1.6 5.6 -3.7 7.6 -6.8 2.7 -4.3 3.9 -10.2 2.1 -10.2 -0.5 0 -0.9 -0.6 -1 -1.2 0 -0.7 -0.3 -2.4 -0.6 -3.8 -0.8 -3.6 0.2 -6.4 1.7 -4.8 3.5 3.7 4.6 8.5 5.1 21.3 0.3 8.5 -0.4 11.5 -2.6 11.5 -0.5 0 -0.6 -0.6 -0.2 -1.2 0.4 -0.8 0.3 -1 -0.2 -0.5 -0.5 0.5 -0.9 1.4 -0.9 2 0 0.7 -2.5 2.4 -5.5 3.9 -6 3 -13 3.5 -18.5 1.4z"/>
  <path d="M252.5 383.1 c0.3 -0.5 0.1 -1.2 -0.5 -1.6 -0.5 -0.3 -1 -3.5 -1 -7 0 -3.5 -0.4 -7.5 -1 -8.9 -0.6 -1.6 -0.6 -2.7 0.1 -3.1 0.5 -0.4 0.6 -1.2 0.2 -1.8 -1.1 -1.8 -1.2 -3.7 -0.2 -3.7 0.5 0 0.9 -0.5 0.9 -1.1 0 -0.5 -0.6 -0.7 -1.2 -0.4 -0.7 0.4 -0.4 -0.1 0.6 -0.9 1.1 -0.9 2.5 -1.6 3.1 -1.6 1.6 0 1.3 5.1 -0.3 6.9 -0.7 0.7 -1 1.6 -0.7 1.9 0.3 0.4 1 0 1.6 -0.8 0.7 -1.1 0.9 -0.5 0.7 2 -0.2 4.4 1.6 7.8 4.8 9 1.9 0.8 2.4 1.7 2.6 5 0 2.2 0.1 4.5 0.2 5.1 0.1 0.6 -2.2 1.3 -5.2 1.5 -3.2 0.3 -5.1 0 -4.7 -0.5z"/>
  <path d="M292 379.1 c-0.8 -0.6 -1.8 -0.7 -2.2 -0.4 -0.5 0.2 -1.5 -0.1 -2.3 -0.7 -0.8 -0.7 -1.5 -0.9 -1.5 -0.4 0 0.4 -1 -0.6 -2.2 -2.2 -1.3 -1.7 -2.8 -2.9 -3.5 -2.7 -2 0.7 -2.4 -1.4 -0.5 -3.4 0.9 -1 1.3 -1.4 0.9 -0.7 -0.4 0.7 -0.3 1.5 0.3 1.9 0.5 0.3 1 0.1 1 -0.5 0 -0.6 0.4 -0.9 0.9 -0.5 0.5 0.3 1.3 0 1.7 -0.6 0.4 -0.8 0.3 -0.9 -0.4 -0.5 -0.7 0.4 -1.2 0.2 -1.2 -0.4 0 -0.7 0.7 -0.9 1.8 -0.5 6.9 2.6 10 2.8 16.6 1.1 3.6 -1 6.9 -2.2 7.2 -2.7 0.9 -1.5 2 -1.1 4.8 1.7 l2.6 2.7 -3.7 3.3 c-5.6 5 -16.4 7.9 -20.3 5.5z"/>
  <path d="M343.3 371.6 c-0.9 -0.5 -3.9 -0.6 -6.7 -0.3 -5.7 0.7 -7.9 -0.4 -10.2 -4.9 -2.6 -5 -1.8 -9.2 2.7 -13.5 2.2 -2.1 4.5 -3.7 5 -3.3 0.5 0.3 0.7 0.9 0.5 1.3 -0.3 0.4 0.3 2 1.3 3.5 1 1.5 1.6 3.6 1.4 4.7 -0.3 1 0.2 3.1 1.2 4.5 1.5 2.4 2.2 2.6 6.8 2.2 4.7 -0.4 5.4 -0.2 7.5 2.3 1.5 1.8 1.9 3 1.1 3.4 -1.6 1.1 -8.8 1.1 -10.6 0.1z"/>
  <path d="M364 370.3 c0 -1 -0.4 -2.3 -0.8 -2.8 -2.5 -3 -6.7 -22.2 -5 -22.7 0.5 -0.2 0.5 -1.8 0.2 -3.6 -0.7 -3.6 -3.1 -5.1 -8.9 -5.7 -1.6 -0.2 -3.1 -0.5 -3.2 -0.6 -0.5 -0.3 -2.3 -0.6 -4.4 -0.8 -1.1 0 -1.7 -0.5 -1.4 -1.1 0.3 -0.5 -0.1 -1 -0.9 -1 -1 0 -1.3 0.6 -1 1.5 0.9 2.2 -0.9 1.8 -2.3 -0.4 -2.6 -4.2 3.7 -6 16.6 -4.7 11.2 1.1 15.2 5.6 17 19.1 0.6 5 1.6 10.9 2.1 13.3 1.4 6.1 1.3 10.2 -0.4 10.2 -0.7 0 -2.8 0.3 -4.5 0.6 -2.6 0.6 -3.1 0.3 -3.1 -1.3z"/>
  <path d="M382.6 369.9 c-0.3 -0.8 -1 -5.9 -1.6 -11.4 -0.7 -5.5 -1.4 -11.3 -1.6 -13 -0.8 -6.6 -1.2 -20.5 -0.5 -20.9 0.4 -0.3 2.6 -0.7 4.9 -0.9 3.9 -0.5 4.2 -0.4 4.2 1.9 0 2.7 1.2 3.1 3.2 1.1 1.7 -1.7 10.8 -4.7 15.8 -5.2 2.8 -0.2 5.4 0.4 9.2 2.3 7.5 3.8 9.4 8 12.2 27.1 1.2 8.3 2 15.4 1.7 15.6 -0.2 0.3 -3.2 0.5 -6.6 0.5 l-6.2 0 -1.1 -12.1 c-1.7 -18.4 -5.1 -23.8 -14.3 -22.5 -2.4 0.3 -5.3 0.7 -6.4 0.8 -2.6 0.3 -3.9 1.7 -4.3 4.8 -0.3 2.7 1.1 14.6 3 24.3 0.7 3.8 0.8 6.1 0.1 6.8 -0.5 0.5 -3.3 1.2 -6.1 1.6 -3.9 0.4 -5.3 0.2 -5.6 -0.8z"/>
  <path d="M298.3 358.3 c0.9 -0.2 2.5 -0.2 3.5 0 0.9 0.3 0.1 0.5 -1.8 0.5 -1.9 0 -2.7 -0.2 -1.7 -0.5z"/>
  <path d="M309 357 c1.4 -0.4 3.6 -0.8 5 -0.8 2.2 0 2.2 0.1 -0.5 0.8 -1.6 0.4 -3.9 0.8 -5 0.8 -1.6 0 -1.5 -0.2 0.5 -0.8z"/>
  <path d="M344.5 353 c1.1 -0.5 3.4 -0.8 5 -0.8 2.9 0 2.9 0 0.5 0.8 -1.4 0.4 -3.6 0.8 -5 0.8 -2.3 0.1 -2.3 0 -0.5 -0.8z"/>
  <path d="M291.8 340.3 c1.2 -0.2 3.2 -0.2 4.5 0 1.2 0.2 0.2 0.4 -2.3 0.4 -2.5 0 -3.5 -0.2 -2.2 -0.4z"/>
  <path d="M335.2 337.5 c0.4 -0.4 0 -1.4 -1 -2.1 -0.9 -0.7 -1.2 -1.4 -0.6 -1.4 0.6 0 1.7 0.6 2.3 1.4 0.9 1.1 0.9 1.6 -0.1 2.2 -0.7 0.4 -1 0.4 -0.6 -0.1z"/>
  <path d="M211.8 286.3 c1.2 -0.2 3.2 -0.2 4.5 0 1.2 0.2 0.2 0.4 -2.3 0.4 -2.5 0 -3.5 -0.2 -2.2 -0.4z"/>
  <path d="M203.3 283.8 c-1.8 -1.3 -3.5 -3 -3.8 -3.8 -0.4 -0.8 0.6 -0.3 2.2 1.2 1.5 1.5 3.9 3.1 5.3 3.7 1.4 0.5 1.8 1 1 1 -0.8 0.1 -3 -0.9 -4.7 -2.1z"/>
  <path d="M287.3 278.6 c-1.8 -0.8 -3.3 -1.8 -3.3 -2.1 0 -0.3 0.9 -0.1 1.9 0.5 2.5 1.3 5.1 1.3 5.1 -0.1 0 -0.5 -0.5 -0.7 -1.1 -0.3 -0.6 0.3 -0.4 -0.5 0.5 -1.8 0.9 -1.4 3.3 -3 5.4 -3.7 2 -0.6 4.5 -1.8 5.6 -2.6 2.1 -1.6 3 -8.5 1.1 -8.5 -0.7 0 -1.8 -0.7 -2.5 -1.5 -0.7 -0.8 -1.5 -1.3 -1.9 -1.1 -0.3 0.2 -1.5 0 -2.6 -0.4 -1.3 -0.5 -0.3 -0.8 3.1 -0.7 5.7 0.1 7.8 -0.8 7 -3 -0.4 -0.8 -0.1 -1.1 0.5 -0.7 0.6 0.3 0.8 1.5 0.6 2.6 -0.4 1.6 -0.3 1.7 0.9 0.7 1.1 -0.9 1.7 -0.4 3 2.7 3 7.2 0.5 15.1 -5.9 18.9 -3.9 2.4 -13.4 2.9 -17.4 1.1z"/>
  <path d="M303 248 c-0.1 -0.8 -0.3 -2.2 -0.4 -3 0 -0.8 -0.7 -1.4 -1.3 -1.2 -1.7 0.3 -1.6 -1.9 0.1 -5.3 1.4 -2.7 1.4 -2.7 2.1 2.8 0.4 3.1 0.5 6.2 0.2 6.9 -0.4 1 -0.6 0.9 -0.7 -0.2z"/>
  <path d="M302.1 210.5 c0.3 -0.2 1.9 -0.5 3.6 -0.7 2.4 -0.2 3.3 -0.8 3.6 -2.5 0.2 -1.3 0 -2.6 -0.4 -2.9 -1.6 -1 -0.9 -3.9 1.4 -5.8 1.2 -1 3 -2.6 3.9 -3.4 1 -0.8 3.9 -1.7 6.4 -2 4 -0.4 4.6 -0.2 4.1 1.2 -0.8 2 -0.3 2 1.7 0.1 1.2 -1.3 1.7 -1.3 2.8 -0.1 1 1 1.9 1.1 3.2 0.4 1.3 -0.7 2.3 -0.4 4.2 1.7 1.4 1.5 2.3 3.4 2 4.2 -0.4 0.8 -0.9 2.6 -1.2 3.9 -0.8 3.2 -7.7 6.4 -14 6.4 -3.5 0 -4.5 -0.3 -3.4 -1 1.3 -0.8 1.3 -1 -0.1 -1 -0.9 0 -2.3 -1.4 -3 -3.2 -1.3 -3.2 -1.3 -3.2 -1.9 -0.8 -0.4 1.8 0 3 1.5 4.2 1.9 1.7 1.7 1.7 -6.4 1.8 -4.6 0 -8.2 -0.2 -8 -0.5z m10.1 -4 c-0.2 -1.4 -0.6 -2.5 -0.8 -2.5 -0.2 0 -0.4 1.1 -0.4 2.5 0 1.4 0.4 2.5 0.9 2.5 0.4 0 0.6 -1.1 0.3 -2.5z"/>
  <path d="M200.8 192.3 c1.2 -0.2 3 -0.2 4 0 0.9 0.3 -0.1 0.5 -2.3 0.4 -2.2 0 -3 -0.2 -1.7 -0.4z"/>
  <path d="M288.3 186.3 c0.9 -0.2 2.5 -0.2 3.5 0 0.9 0.3 0.1 0.5 -1.8 0.5 -1.9 0 -2.7 -0.2 -1.7 -0.5z"/>
  <path d="M251.5 144 c0.3 -0.5 1.6 -1 2.8 -1 1.8 0 1.9 0.2 0.7 1 -2 1.3 -4.3 1.3 -3.5 0z"/>
  <path d="M259.8 142.3 c1.2 -0.2 3 -0.2 4 0 0.9 0.3 -0.1 0.5 -2.3 0.4 -2.2 0 -3 -0.2 -1.7 -0.4z"/>
  <path d="M160.3 139.5 c-0.9 -2.4 0 -2.5 2.6 -0.4 2.3 1.9 2.3 1.9 0.2 1.9 -1.2 0 -2.4 -0.7 -2.8 -1.5z"/>
  <path d="M179 137.7 c0 -0.2 1.5 -1.6 3.3 -3.3 l3.2 -2.9 -2.9 3.3 c-2.8 3 -3.6 3.7 -3.6 2.9z"/>
  <path d="M192.5 125.7 c3.3 -3.1 6.4 -5.6 6.9 -5.7 1 0 -2.9 3.6 -8.9 8.2 -2.3 1.7 -1.4 0.6 2 -2.5z"/>
  <path d="M200.1 118.8 c0.2 -0.2 2.2 -1.9 4.4 -3.8 l4 -3.5 -3.4 3.8 c-1.9 2 -3.9 3.7 -4.5 3.7 -0.5 0 -0.7 -0.1 -0.5 -0.2z"/>
  <path d="M230 93.7 c0 -0.2 1.5 -1.6 3.3 -3.3 l3.2 -2.9 -2.9 3.3 c-2.8 3 -3.6 3.7 -3.6 2.9z"/>
  <path d="M239.9 84.7 c2.9 -3.2 2.9 -3.2 5.9 -0.9 l2.3 1.8 -3.5 -0.4 c-2.1 -0.2 -4.4 0.1 -5.4 0.9 -0.9 0.7 -0.6 0.1 0.7 -1.4z"/>
 </g>
 <g fill="#33ff86">
  <path d="M144 245.4 c-7.2 -3.1 -13.1 -10.7 -15.5 -19.9 -1.8 -6.9 -1.9 -10.6 -0.1 -17.2 3.9 -14.4 12.8 -24.7 25.1 -28.6 5 -1.6 21.1 -3.7 28.2 -3.7 3.7 0 3.8 0.2 5.6 5.3 0.9 3 1.7 6.7 1.7 8.4 0 2.8 -0.3 3.1 -4.6 3.7 -2.6 0.3 -7.1 0.6 -10 0.6 -13.3 0 -20.8 4.1 -25.4 13.9 -2.2 4.7 -2.2 5.4 -0.9 9.3 1.4 4.4 5 8.6 10 11.5 1.6 1 2.9 2.2 2.9 2.8 -0.2 3 -2.8 10.6 -4.5 12.9 -2.3 3.1 -6.9 3.4 -12.5 1z"/>
  <path d="M101.2 178.9 c-5 -2.5 -7.2 -6.2 -7.2 -11.9 0 -5.7 2.6 -10.7 7.1 -13.7 5 -3.3 11 -3.8 18 -1.6 5.2 1.7 7 1.7 25 0.6 10.7 -0.7 24.9 -1.6 31.7 -1.9 l12.2 -0.7 0 8.1 0 8.1 -4.2 0.5 c-2.4 0.3 -8.8 0.8 -14.3 1.1 -5.5 0.4 -12.7 1.1 -16 1.6 -3.3 0.5 -10.4 1.7 -15.9 2.5 -8.2 1.3 -10.7 2.1 -15.3 5.1 -7.1 4.8 -14.6 5.5 -21.1 2.2z m14.2 -11 c6.9 -5.4 -1.9 -14.4 -9.2 -9.3 -1.5 1 -2.2 2.5 -2.2 4.9 0 6 6.3 8.4 11.4 4.4z"/>
 </g>
 <g fill="#20e86d">
  <path d="M159 250 c-12 -1.5 -20 -5.2 -20 -9.3 l0 -2.4 6 3 6 3 2.4 -2.8 c2.2 -2.6 4.2 -9.2 3.7 -12.4 -0.2 -1.3 -0.1 -1.3 1.5 0 1.4 1.1 5 1.3 18.1 1.1 l16.3 -0.3 0 4.9 c0 4.7 -0.2 5 -2.9 5.5 -2.6 0.5 -3 1.1 -3.3 4.4 -0.2 2.8 -0.9 4.1 -2.8 5 -2.7 1.4 -14.4 1.5 -25 0.3z"/>
  <path d="M130.2 231.5 c-2.5 -5.5 -0.8 -6.1 2.6 -1 2.1 3.3 2.1 3.5 0.4 3.5 -1 0 -2.4 -1.1 -3 -2.5z"/>
  <path d="M255 226.6 c0 -1.3 2.8 -2.6 5.8 -2.6 0.6 0 1.2 0.9 1.2 2 0 1.6 -0.7 2 -3.5 2 -2.3 0 -3.5 -0.5 -3.5 -1.4z"/>
  <path d="M177.8 192.7 c8.1 -1.8 8.7 -2.5 6.8 -7.2 -0.9 -2.1 -1.6 -4.6 -1.6 -5.7 0 -1 -1 -2.3 -2.2 -2.8 -1.8 -0.7 -1.3 -0.9 2.8 -0.9 3.9 -0.1 5.3 0.3 5.8 1.5 1 2.5 0.7 14.2 -0.3 14.9 -0.6 0.3 -4.7 0.8 -9.3 1 l-8.3 0.5 6.3 -1.3z"/>
  <path d="M226 182.2 c0 -6.5 0.3 -8.1 1.6 -8.6 0.9 -0.4 8 -1.1 15.8 -1.6 7.7 -0.5 16.2 -1.3 18.9 -1.6 l4.7 -0.7 0 3.1 c0 1.7 -0.4 3.2 -0.8 3.4 -0.5 0.2 -1.2 1.5 -1.6 3.1 -0.5 2 -0.2 2.9 0.9 3.3 0.8 0.4 1.5 1.4 1.5 2.5 0 2.1 -2 2.6 -15.5 3.3 -4.9 0.3 -12.7 0.8 -17.2 1.2 l-8.3 0.7 0 -8.1z"/>
  <path d="M104 179.2 c0 -1.6 0.8 -1.9 5.8 -1.9 5.8 0 9.1 -1.1 12.8 -4.4 1.3 -1.2 4.7 -2.3 9.5 -2.9 9.3 -1.2 9.9 -1.2 9.9 -0.1 0 0.5 -3.2 1.5 -7.1 2.1 -5.3 0.9 -8.7 2.2 -13.2 5.1 -5.2 3.4 -6.8 3.9 -11.9 3.9 -5 0 -5.8 -0.3 -5.8 -1.8z"/>
  <path d="M95 173 c-1.8 -4.4 -0.9 -4.5 3 -0.5 l3.4 3.5 -2.6 0 c-1.9 0 -2.9 -0.8 -3.8 -3z"/>
  <path d="M143 170.1 c0 -1.2 3.7 -2.1 8.5 -2 4 0.1 4 0.1 -1.5 1.4 -6.7 1.7 -7 1.7 -7 0.6z"/>
  <path d="M177.8 165.8 c6.7 -0.9 7.3 -1.2 7.8 -3.6 1.3 -6.2 2.3 -6.8 2.3 -1.6 0.1 5 0 5.2 -3 5.8 -1.7 0.3 -5.7 0.5 -8.8 0.5 l-5.6 -0.2 7.3 -0.9z"/>
 </g>
 <g fill="#14db5e">
  <path d="M171.2 421.8 c0.3 -3 0.6 -3.3 3.7 -3.3 4.4 0 6.5 2.9 3.7 5.1 -1.1 0.8 -3.3 1.4 -4.9 1.4 -2.6 0 -2.8 -0.3 -2.5 -3.2z"/>
  <path d="M244.8 282.4 c0.5 -1 0.8 -4.7 0.5 -8.3 -1 -16.4 -2.5 -29.6 -3.4 -30.7 -0.7 -0.9 -1.9 -1 -4.2 -0.3 -5.1 1.5 -5.5 1.2 -6.1 -4.3 -0.4 -2.9 -0.9 -6.9 -1.2 -8.9 l-0.5 -3.7 8.8 -0.6 c4.8 -0.3 14.1 -0.9 20.6 -1.2 l11.7 -0.6 0 2.5 c0 5.5 -1.3 8.8 -3.9 10.2 -3.7 1.8 -8.1 10.3 -8.1 15.3 0 2.4 -0.8 4.9 -2 6.5 -1.2 1.5 -2 4 -2 6.4 0 2.1 -0.9 6.4 -2 9.6 -1.1 3.1 -2 6.6 -2 7.7 0 1.6 -0.7 2 -3.5 2 -3.1 0 -3.5 -0.3 -2.7 -1.6z"/>
  <path d="M154.3 249.8 c-3.3 -0.7 -4.3 -1.4 -4.3 -2.9 0 -2.1 1.6 -2.4 5.3 -1 1.3 0.5 5.1 1.1 8.3 1.2 7.6 0.3 9.4 0.8 9.4 2.5 0 1.7 -11.8 1.8 -18.7 0.2z"/>
  <path d="M176 249.7 c0 -0.9 1.3 -1.8 2.9 -2.2 3.8 -0.8 5.9 -3.1 4.3 -4.7 -0.7 -0.7 -1.2 -1.5 -1.2 -2 0 -1.3 4.7 -3.9 7.8 -4.4 2.7 -0.4 3 -0.2 3.6 3.3 1.5 9.1 0.9 9.7 -10.1 10.8 -6.2 0.6 -7.3 0.5 -7.3 -0.8z"/>
  <path d="M142 243.5 c0 -1.9 -0.5 -2.5 -2.3 -2.5 -3 0 -4.7 -1.8 -4.7 -4.9 0 -2.5 0 -2.5 3.8 1.1 2 2 5.2 4.3 7 5.2 4.2 2.1 4.1 3.6 -0.3 3.6 -3.1 0 -3.5 -0.3 -3.5 -2.5z"/>
  <path d="M128.3 224.5 c-0.6 -1.9 -0.7 -3.3 -0.3 -3 1.2 0.7 3 6.5 2.1 6.5 -0.4 0 -1.2 -1.6 -1.8 -3.5z"/>
  <path d="M127.2 215 c0 -1.9 0.2 -2.7 0.5 -1.7 0.2 0.9 0.2 2.5 0 3.5 -0.3 0.9 -0.5 0.1 -0.5 -1.8z"/>
  <path d="M147 210.8 c0 -1.6 3.1 -7.6 4.4 -8.7 0.9 -0.8 0.5 0.7 -1.1 3.5 -2.9 5.4 -3.3 6 -3.3 5.2z"/>
  <path d="M180.5 193.1 c1.1 -0.5 3.4 -1 5.2 -1 2.1 -0.1 3.3 -0.7 3.6 -1.8 0.4 -1.6 0.5 -1.6 0.6 -0.1 0.1 2.2 -0.4 2.4 -6.4 3.2 -3.4 0.4 -4.3 0.3 -3 -0.3z"/>
  <path d="M227.3 189.4 c0.4 -0.4 4.2 -0.8 8.4 -1 5.4 -0.2 6.9 0 4.8 0.6 -3.6 0.9 -14.1 1.3 -13.2 0.4z"/>
  <path d="M247.1 187.6 c0.3 -0.3 4.3 -0.7 8.8 -0.7 6.9 -0.1 7.9 -0.3 6.5 -1.3 -1.1 -0.9 -1.6 -2.4 -1.5 -4.7 0.1 -1.9 0.2 -4.2 0.2 -5.2 0 -1 0.7 -2.1 1.5 -2.4 1.2 -0.4 1.2 -0.8 -0.3 -1.9 -1.6 -1.2 -1.3 -1.3 2.8 -1.4 l4.6 0 0.6 8.2 c0.4 4.5 0.5 8.3 0.3 8.6 -0.7 0.6 -24.1 1.5 -23.5 0.8z"/>
  <path d="M189.3 181.5 c0 -2.2 0.2 -3 0.4 -1.7 0.2 1.2 0.2 3 0 4 -0.3 0.9 -0.5 -0.1 -0.4 -2.3z"/>
  <path d="M307.4 176.3 c-0.6 -4.3 -0.8 -8.2 -0.4 -8.6 1.2 -1.4 34.1 -2.1 37.3 -0.8 4.6 1.8 3.5 4.7 -2.5 6.7 -5.5 1.7 -8.8 4.3 -8.8 6.8 0 1.1 -1.9 1.6 -7.7 2.1 -4.3 0.3 -9.8 0.8 -12.3 1.1 l-4.6 0.5 -1 -7.8z"/>
  <path d="M97.9 176 c-2.7 -2.7 -3.9 -4.8 -3.9 -6.7 l0 -2.8 1.6 3.2 c1.1 2.2 3.2 4 6.5 5.5 5.3 2.5 6.4 4.8 2.3 4.8 -1.7 0 -3.9 -1.4 -6.5 -4z"/>
  <path d="M118 177 c0 -0.5 0.4 -1 0.9 -1 0.5 0 1.9 -1.1 3.2 -2.5 1.3 -1.3 3 -2.5 3.7 -2.5 2.4 0 1.1 2.9 -2.2 4.9 -3.6 2.3 -5.6 2.7 -5.6 1.1z"/>
  <path d="M128 172.2 c0 -1.1 2.1 -1.6 10.3 -2.7 5.9 -0.8 6.3 1 0.5 1.9 -2.4 0.4 -5.8 0.9 -7.5 1.2 -2 0.4 -3.3 0.2 -3.3 -0.4z"/>
  <path d="M178.8 166.3 c1.2 -0.2 3 -0.2 4 0 0.9 0.3 -0.1 0.5 -2.3 0.4 -2.2 0 -3 -0.2 -1.7 -0.4z"/>
  <path d="M305.6 155.1 c-0.3 -2 -0.6 -5.7 -0.6 -8.2 l0 -4.6 10.8 -0.7 c5.9 -0.3 15.8 -0.9 22.1 -1.3 l11.4 -0.6 -0.7 5.1 c-0.4 3.4 -0.3 5.2 0.4 5.2 0.5 0 1 1.4 1 3 0 3 0 3 -5.6 3 -3 0 -9.7 0.4 -14.7 1 -5.1 0.5 -12.4 1.1 -16.3 1.3 l-7.2 0.4 -0.6 -3.6z"/>
 </g>
 <g fill="#06cc50">
  <path d="M150.8 426.4 c-0.5 -0.4 -0.8 -1.8 -0.8 -3 0 -2.5 0.3 -2.6 12.5 -4 11.2 -1.3 15.7 -1.1 16.9 0.8 2.2 3.6 -1.6 4.8 -20.4 6.4 -4.1 0.3 -7.8 0.3 -8.2 -0.2z m26.9 -3.9 c0.3 -0.9 0.3 -1.9 -0.1 -2.2 -0.8 -0.9 -3.7 1.8 -3 2.8 0.8 1.4 2.4 1.1 3.1 -0.6z"/>
  <path d="M239.5 295.9 c-1.3 -1.9 0.5 -7.7 3.5 -11.4 1.7 -2.1 3 -4.3 3 -4.9 0 -0.6 0.5 -0.4 1 0.4 0.8 1.2 1 1.1 1 -0.8 0 -1.2 0.9 -4.8 2 -7.9 1.1 -3.2 2 -7.5 2 -9.6 0 -2.4 0.8 -4.9 2 -6.4 1.3 -1.6 1.9 -3.9 1.8 -6.2 -0.2 -4.7 4.6 -13.7 8.3 -15.6 2.6 -1.4 4.6 -6.6 3.3 -8.6 -0.3 -0.5 0.8 -0.9 2.4 -0.9 2.6 0 3 0.5 4.5 5.3 0.9 3 1.7 6.5 1.7 8 0 2.7 -0.2 2.8 -9.8 4.2 -4.3 0.7 -4.4 0.8 -3.8 3.9 0.3 1.7 1 8.5 1.6 15.1 1.4 16.1 1.9 18.5 4.6 21.8 1.3 1.6 2.4 3.4 2.4 4.1 0 3.5 -6.5 4.9 -9.4 2.1 -0.8 -0.8 -3.2 -1.5 -5.4 -1.5 -4.9 0 -8.7 3.6 -8 7.4 0.5 2.5 0.3 2.6 -3.8 2.6 -2.3 0 -4.6 -0.5 -4.9 -1.1z"/>
  <path d="M154.8 250.3 c-2.1 -0.3 -2.8 -1 -2.8 -2.7 0 -2.3 0 -2.3 6 -0.8 3.7 0.9 6 2 6 2.8 0 1.4 -3.1 1.6 -9.2 0.7z"/>
  <path d="M187 248.6 c0 -0.8 1.3 -1.7 2.9 -2.1 1.7 -0.3 3.2 -1.4 3.4 -2.3 0.3 -1 0.5 -0.6 0.6 1 0.1 1.8 -0.6 3.1 -1.8 3.8 -2.8 1.4 -5.1 1.2 -5.1 -0.4z"/>
  <path d="M327.3 227.5 c-0.7 -0.8 -1.3 -2.5 -1.3 -3.8 0 -2.1 0.6 -2.5 4.6 -3.1 2.6 -0.3 5.3 -0.6 6 -0.6 1.8 0 1.9 6.1 0.2 7.8 -1.6 1.6 -8 1.4 -9.5 -0.3z"/>
  <path d="M353.8 200.1 c-0.6 -6.1 -3.3 -9.9 -10 -14.2 -5.2 -3.3 -5.5 -3.4 -15.5 -3.2 -8.4 0.1 -10.3 -0.1 -10.3 -1.3 0 -1.8 -3 -1.8 -6.5 0 l-2.7 1.4 2.3 0.5 c2.2 0.4 2.1 0.4 -0.4 0.6 -2.7 0.1 -2.8 0 -2.6 -5.1 0.2 -2.9 -0.1 -6.8 -0.5 -8.5 l-0.8 -3.3 4.4 0 c2.4 0 5.4 -0.3 6.8 -0.6 1.7 -0.5 2.2 -0.3 1.5 0.4 -0.5 0.5 -1.9 1.2 -2.9 1.4 -2.7 0.4 -3.3 2.8 -0.7 2.8 2.7 0 2.7 1.6 0 2.3 -1.7 0.5 -1.9 0.9 -1 2.5 0.6 1.1 0.7 2.2 0.4 2.6 -0.3 0.3 1.4 0.6 3.9 0.6 2.5 0 6.1 0.3 7.9 0.6 2.1 0.3 2.9 0.2 2.2 -0.3 -2.1 -1.5 3.6 -6.9 9.5 -8.8 2.8 -0.9 4.9 -2.1 4.6 -2.6 -1 -1.6 6.7 0.2 10.8 2.5 2.1 1.2 5.8 3.8 8.4 6 4 3.4 4.5 4.2 4.1 7 -0.3 1.7 -1 6.2 -1.5 9.9 -1.3 8.8 -3.2 11.7 -7.6 11.7 -3.3 0 -3.4 -0.1 -3.8 -4.9z"/>
  <path d="M181.5 193 c1.1 -0.5 2.9 -0.8 4 -0.8 1.6 0 1.5 0.2 -0.5 0.8 -3.4 1.1 -6 1.1 -3.5 0z"/>
  <path d="M123.2 173 c1.2 -1.9 4.8 -2.8 4.8 -1.2 0 1.4 -2.3 3.2 -4.2 3.2 -1.6 0 -1.6 -0.3 -0.6 -2z"/>
  <path d="M137 170.9 c0 -0.7 3.5 -1.9 5.8 -1.9 2.8 0 0.9 1.8 -2.3 2.2 -1.9 0.2 -3.5 0.1 -3.5 -0.3z"/>
  <path d="M327.8 166.3 c1.8 -0.2 4.5 -0.2 6 0 1.5 0.2 0 0.4 -3.3 0.4 -3.3 0 -4.5 -0.2 -2.7 -0.4z"/>
  <path d="M321 156.9 c2.5 -0.4 6.8 -0.7 9.5 -0.7 l5 0.1 -5.5 0.7 c-3 0.5 -7.3 0.8 -9.5 0.8 l-4 -0.1 4.5 -0.8z"/>
  <path d="M366.6 156.3 c-0.4 -0.5 -6.5 -0.7 -13.4 -0.6 -11.8 0.2 -12.4 0.2 -9.2 -1.1 2 -0.9 2.7 -1.5 1.7 -1.5 -1.6 -0.1 -1.7 -0.7 -1.1 -4.8 0.3 -2.7 0.7 -5.2 0.8 -5.8 0 -0.5 -2.1 -1.3 -4.9 -1.6 l-5 -0.6 5.8 -0.1 c13.6 -0.4 24.7 -2.3 28.4 -4.8 4.5 -3 11.9 -3.2 18.1 -0.4 4.1 1.9 4.2 2 4.2 7 0 4.9 -0.1 5 -3 5 -2.3 0 -3 -0.4 -3 -2 0 -1.1 -1.2 -2.7 -2.6 -3.6 -6 -4 -14.5 2.5 -9.9 7.6 1 1.1 2.4 2 3.2 2 0.8 0 1.3 1.2 1.3 3 0 3 -0.1 3 -5.3 3 -3 0 -5.7 -0.3 -6.1 -0.7z"/>
  <path d="M381 154.3 c0 -2.1 0.7 -3.1 2.7 -4 4 -1.9 4.3 -1.7 4.3 2.7 0 3.9 -0.1 4 -3.5 4 -3.2 0 -3.5 -0.3 -3.5 -2.7z"/>
  <path d="M309.8 142.3 c1.2 -0.2 3 -0.2 4 0 0.9 0.3 -0.1 0.5 -2.3 0.4 -2.2 0 -3 -0.2 -1.7 -0.4z"/>
 </g>
 <g fill="#04b84a">
  <path d="M136.7 427.4 c-1.5 -1.6 -0.6 -4.4 1.6 -4.8 6.6 -1.3 19.9 -2.7 20.4 -2.2 0.4 0.3 -0.5 0.6 -2 0.6 -1.4 0 -2.9 0.5 -3.2 1 -0.9 1.5 3.9 3 9.8 3.1 4.6 0.1 4.8 0.2 2 0.9 -4.7 1.1 -27.7 2.2 -28.6 1.4z"/>
  <path d="M171.8 424.3 c1.2 -0.2 3 -0.2 4 0 0.9 0.3 -0.1 0.5 -2.3 0.4 -2.2 0 -3 -0.2 -1.7 -0.4z"/>
  <path d="M178.5 420.1 c-0.6 -0.6 -3 -1.1 -5.5 -1.4 l-4.5 -0.4 4.6 -0.1 c3.1 -0.1 5.1 0.3 5.9 1.3 1.4 1.6 1 2.1 -0.5 0.6z"/>
  <path d="M335.3 408.4 c-0.7 -0.3 -1.3 -1.6 -1.3 -2.9 0 -1.9 0.6 -2.5 3.3 -2.9 6.9 -1.1 31.6 -1.6 32.1 -0.7 1.6 2.6 -0.8 3.8 -9.7 4.9 -12.3 1.5 -22.9 2.2 -24.4 1.6z"/>
  <path d="M247.4 307.1 c-7.5 -3.4 -10.5 -13.8 -5.9 -20.8 1.9 -2.9 3.2 -2.4 1.6 0.5 -2.5 4.6 0 9 3.4 6.2 1.2 -1 1.5 -0.9 1.5 0.7 0 1.1 1.1 3 2.5 4.3 1.9 1.8 3.1 2.2 6 1.7 5 -0.8 6.5 -2.3 6.5 -6.4 0 -4.4 -1.9 -6.3 -6.4 -6.3 -2 0 -3.6 -0.4 -3.6 -0.9 0 -1.7 3.4 -1.8 7.2 -0.3 2.1 0.8 4.5 1.2 5.3 0.8 2.4 -0.9 2.9 -3.5 1.1 -5.5 -1 -1.1 -1.8 -4.2 -2.1 -8.2 l-0.4 -6.4 1 6.3 c0.7 4.8 1.8 7.4 4.2 10.4 2.8 3.4 3.2 4.7 3.2 9.8 0 5.2 -0.4 6.3 -3 9 -6.5 6.8 -14.3 8.6 -22.1 5.1z"/>
  <path d="M159.5 252.1 c-3.3 -0.4 -8.1 -1.6 -10.7 -2.8 -5.8 -2.6 -14.2 -10.3 -17.2 -15.8 -2.7 -4.6 -5.1 -14.2 -4.3 -17.1 0.3 -1.1 0.5 -0.5 0.6 1.6 0.4 10 10.3 21.6 23.1 27 6.3 2.6 22.6 3.7 34.5 2.3 6.7 -0.8 7 -0.9 7.7 -3.8 0.6 -2.6 0.6 -2.5 0.5 1 -0.2 4.6 0 4.5 -14.2 6.9 -9.4 1.7 -10.1 1.7 -20 0.7z"/>
  <path d="M261.6 248.4 c-1.9 -5 0.9 -9 5.7 -8.1 1.7 0.2 1.3 0.5 -1.6 1.1 -3.8 0.8 -3.8 0.9 -3.2 4.7 0.7 4 0.2 5.2 -0.9 2.3z"/>
  <path d="M271.8 240.3 c0.6 -0.3 1.2 -1 1.2 -1.7 0 -2.4 -4 -13 -5.3 -13.8 -0.7 -0.4 0.4 -0.8 2.6 -0.8 3 0 3.9 0.5 4.6 2.3 1.4 3.7 1.9 13.7 0.7 13.7 -0.6 0 -2 0.2 -3.1 0.4 -1.1 0.2 -1.4 0.1 -0.7 -0.1z"/>
  <path d="M318.7 240.3 c-5.7 -0.5 -6.1 -1.3 -7 -11.9 l-0.6 -7.1 13.3 -0.5 c11.4 -0.5 14.1 -0.9 18.1 -2.9 8.6 -4.3 12.5 -11.1 11.2 -19.5 -0.3 -1.9 -0.4 -3.4 -0.3 -3.4 0.2 0 1.2 1.7 2.1 3.7 l1.8 3.7 1.9 -2.3 c1 -1.3 1.6 -3.2 1.3 -4.2 -0.3 -0.9 -0.1 -2 0.5 -2.4 0.5 -0.3 1 -1.9 1 -3.5 0 -1.6 0.4 -4 1 -5.5 0.8 -2.2 0.5 -3.1 -2.7 -6.8 -6.6 -7.5 -6.9 -8.2 -1.8 -4.5 6.5 4.7 11.9 11.8 14 18.6 3.8 11.9 -0.5 27.3 -9.9 36 -5.9 5.5 -16.6 10.7 -24.7 12.1 -6.4 1.1 -9.4 1.1 -19.2 0.4z m15.1 -15.5 c1.7 -1.7 1.5 -2.7 -0.5 -2.3 -1 0.2 -2.4 0.4 -3.1 0.4 -1 0.1 -1 0.4 0 1.6 1.6 1.8 2.1 1.8 3.6 0.3z"/>
  <path d="M148 208.7 c0 -1.7 2.9 -6.3 5.7 -8.7 l2.8 -2.5 -2.6 3 c-1.5 1.7 -3.4 4.4 -4.2 6 -0.9 1.7 -1.6 2.6 -1.7 2.2z"/>
  <path d="M177.8 193.3 c1.2 -0.2 3 -0.2 4 0 0.9 0.3 -0.1 0.5 -2.3 0.4 -2.2 0 -3 -0.2 -1.7 -0.4z"/>
  <path d="M351 192.1 c-0.6 -1.2 -3.4 -3.7 -6.3 -5.6 -5.8 -3.9 -5.8 -4.8 0.1 -1.1 4.4 2.8 8.8 7.3 8 8.2 -0.4 0.3 -1.1 -0.4 -1.8 -1.5z"/>
  <path d="M232.8 189.3 c1.2 -0.2 3 -0.2 4 0 0.9 0.3 -0.1 0.5 -2.3 0.4 -2.2 0 -3 -0.2 -1.7 -0.4z"/>
  <path d="M308 182.3 c0 -1.2 0.3 -1.4 0.8 -0.7 0.4 0.7 1.6 1.4 2.7 1.7 1.5 0.4 1.4 0.5 -0.7 0.6 -2.1 0.1 -2.8 -0.4 -2.8 -1.6z"/>
  <path d="M100.6 178.6 c-4.1 -2.5 -6.5 -5.8 -6.5 -9.1 0 -1.9 0 -1.9 1.2 0.2 4.8 8.6 19.3 10.6 27.4 3.9 2.2 -1.8 5 -2.5 12.5 -3.4 18 -2.2 20.5 -1.2 3.5 1.3 -9.5 1.4 -11.5 2.1 -16.9 5.5 -5.3 3.5 -6.9 4 -11.7 4 -4.1 0 -6.6 -0.6 -9.5 -2.4z"/>
  <path d="M307 168.6 c0 -1.2 0.9 -1.6 3.3 -1.5 2.1 0.1 2.5 0.3 1.2 0.6 -1.1 0.3 -2.6 1 -3.2 1.5 -1 0.8 -1.3 0.6 -1.3 -0.6z"/>
  <path d="M371.3 159.5 c-1.8 -1.4 -4.5 -3.2 -6 -4 -2.7 -1.5 -2.6 -1.5 3.4 -1.5 l6.3 0 -2 -3.5 c-2.1 -3.8 -2.5 -6.1 -1.1 -6.9 0.4 -0.3 0.6 0.5 0.4 1.7 -0.6 3.1 2.9 6.1 7.2 6.1 4.1 0 6.5 -1.9 6.5 -5 0 -1.6 0.6 -2.4 1.6 -2.4 1.4 0 1.6 -0.8 1.1 -4.5 -0.4 -4.4 -0.4 -4.5 1.6 -3.2 3.4 2.2 5.9 7.8 5.4 11.9 -1.4 11 -16.1 17.8 -24.4 11.3z"/>
  <path d="M321.3 157.3 c0.9 -0.2 2.5 -0.2 3.5 0 0.9 0.3 0.1 0.5 -1.8 0.5 -1.9 0 -2.7 -0.2 -1.7 -0.5z"/>
  <path d="M351.3 155.3 c2 -0.2 5.4 -0.2 7.5 0 2 0.2 0.3 0.4 -3.8 0.4 -4.1 0 -5.8 -0.2 -3.7 -0.4z"/>
  <path d="M241.8 83.8 c0.9 -0.9 1.5 -0.9 2.4 0 0.9 0.9 0.7 1.2 -1.2 1.2 -1.9 0 -2.1 -0.3 -1.2 -1.2z"/>
 </g>
</svg>